/* XPM */
static char * button_sweep_up_xpm[] = {
"7 20 95 2",
"  	c None",
". 	c #13141A",
"+ 	c #161821",
"@ 	c #1A1C27",
"# 	c #2C2E43",
"$ 	c #303347",
"% 	c #34374B",
"& 	c #363A4F",
"* 	c #646985",
"= 	c #4A4D67",
"- 	c #4F5370",
"; 	c #535672",
"> 	c #555A76",
", 	c #787D9D",
"' 	c #535876",
") 	c #5C607D",
"! 	c #606481",
"~ 	c #616684",
"{ 	c #7F83A6",
"] 	c #5E6481",
"^ 	c #666C8D",
"/ 	c #676C92",
"( 	c #696E94",
"_ 	c #878CB0",
": 	c #646A8F",
"< 	c #6C759B",
"[ 	c #717A9E",
"} 	c #7178A0",
"| 	c #8F95B8",
"1 	c #6A719B",
"2 	c #757BA4",
"3 	c #777FAA",
"4 	c #7A80AB",
"5 	c #989EBF",
"6 	c #363A4D",
"7 	c #8187B2",
"8 	c #8991BA",
"9 	c #8D94BC",
"0 	c #8F95BE",
"a 	c #AAADCF",
"b 	c #5C627B",
"c 	c #9AA2C9",
"d 	c #A0A7CD",
"e 	c #A2A9CF",
"f 	c #A5ABD0",
"g 	c #DFE1F0",
"h 	c #C3CAE4",
"i 	c #BEC3E1",
"j 	c #BCC1DF",
"k 	c #BABFDF",
"l 	c #CCD0E5",
"m 	c #AAB1D1",
"n 	c #A2A9CD",
"o 	c #A2A8C9",
"p 	c #9EA5CB",
"q 	c #777EA2",
"r 	c #B8BED9",
"s 	c #9097BD",
"t 	c #FDF3C0",
"u 	c #8890B7",
"v 	c #858DB4",
"w 	c #858EB2",
"x 	c #505371",
"y 	c #AEB3D1",
"z 	c #848AB1",
"A 	c #FCEEAF",
"B 	c #7981A6",
"C 	c #777FA4",
"D 	c #444761",
"E 	c #A4A9C9",
"F 	c #787EA5",
"G 	c #FAEAA7",
"H 	c #FAE6A1",
"I 	c #696F96",
"J 	c #383C51",
"K 	c #9EA5C3",
"L 	c #6E769B",
"M 	c #F9E5A0",
"N 	c #656B8C",
"O 	c #636B8C",
"P 	c #34384D",
"Q 	c #989EBD",
"R 	c #686E8F",
"S 	c #F9E59E",
"T 	c #636886",
"U 	c #5D6380",
"V 	c #313448",
"W 	c #555874",
"X 	c #4C4E69",
"Y 	c #474A66",
"Z 	c #464A65",
"` 	c #282B3D",
" .	c #40455D",
"..	c #31344A",
"+.	c #303349",
". . . . + @   ",
". # # $ % & * ",
". = = - ; > , ",
". ' ' ) ! ~ { ",
". ] ] ^ / ( _ ",
". : : < [ } | ",
". 1 1 2 3 4 5 ",
". 1 1 2 3 4 5 ",
"6 7 7 8 9 0 a ",
"b c c d e f   ",
"g h h i j k   ",
"l m m n o p q ",
"r s t u v w x ",
"y z z A B C D ",
"E F F G H I J ",
"K L L M N O P ",
"Q R S T ! U V ",
"Q R R T ! U V ",
"Q W W X Y Z ` ",
"Q  . .P ..+.  "};
