/* XPM */
static char * button_sweep_dn_xpm[] = {
"7 20 113 2",
"  	c None",
". 	c #13141A",
"+ 	c #161821",
"@ 	c #1A1C27",
"# 	c #50546D",
"$ 	c #252938",
"% 	c #2C2E43",
"& 	c #303347",
"* 	c #34374B",
"= 	c #363A4F",
"- 	c #646985",
"; 	c #383C53",
"> 	c #4A4D67",
", 	c #4F5370",
"' 	c #535672",
") 	c #555A76",
"! 	c #787D9D",
"~ 	c #3D435C",
"{ 	c #535876",
"] 	c #5C607D",
"^ 	c #606481",
"/ 	c #616684",
"( 	c #7F83A6",
"_ 	c #464C65",
": 	c #5E6481",
"< 	c #666C8D",
"[ 	c #676C92",
"} 	c #696E94",
"| 	c #878CB0",
"1 	c #4C516D",
"2 	c #646A8F",
"3 	c #6C759B",
"4 	c #717A9E",
"5 	c #7178A0",
"6 	c #8F95B8",
"7 	c #525675",
"8 	c #6A719B",
"9 	c #757BA4",
"0 	c #777FAA",
"a 	c #7A80AB",
"b 	c #989EBF",
"c 	c #363A4D",
"d 	c #697098",
"e 	c #8187B2",
"f 	c #8991BA",
"g 	c #8D94BC",
"h 	c #8F95BE",
"i 	c #AAADCF",
"j 	c #878EB4",
"k 	c #9AA2C9",
"l 	c #A0A7CD",
"m 	c #A2A9CF",
"n 	c #A5ABD0",
"o 	c #C2C7E1",
"p 	c #D0D5EB",
"q 	c #C3CAE4",
"r 	c #BEC3E1",
"s 	c #BCC1DF",
"t 	c #BABFDF",
"u 	c #A6AFCB",
"v 	c #CCD0E5",
"w 	c #B7BDDA",
"x 	c #AAB1D1",
"y 	c #A2A9CD",
"z 	c #A2A8C9",
"A 	c #9EA5CB",
"B 	c #777EA2",
"C 	c #B8BED9",
"D 	c #A0A6C9",
"E 	c #9097BD",
"F 	c #8890B7",
"G 	c #FCF1B7",
"H 	c #858EB2",
"I 	c #505371",
"J 	c #AEB3D1",
"K 	c #9499BD",
"L 	c #848AB1",
"M 	c #FCEEAF",
"N 	c #7981A6",
"O 	c #777FA4",
"P 	c #444761",
"Q 	c #A4A9C9",
"R 	c #8990B2",
"S 	c #FBEBAC",
"T 	c #FAEAA7",
"U 	c #6A7399",
"V 	c #696F96",
"W 	c #383C51",
"X 	c #9EA5C3",
"Y 	c #8189AA",
"Z 	c #6E769B",
"` 	c #F9E5A0",
" .	c #656B8C",
"..	c #636B8C",
"+.	c #34384D",
"@.	c #989EBD",
"#.	c #7980A0",
"$.	c #686E8F",
"%.	c #636886",
"&.	c #F9E294",
"*.	c #5D6380",
"=.	c #313448",
"-.	c #6A7091",
";.	c #555874",
">.	c #4C4E69",
",.	c #474A66",
"'.	c #464A65",
").	c #282B3D",
"!.	c #60637D",
"~.	c #40455D",
"{.	c #31344A",
"].	c #303349",
"^.	c #1D1E2C",
"  . . . + @ # ",
". $ % & * = - ",
". ; > , ' ) ! ",
". ~ { ] ^ / ( ",
". _ : < [ } | ",
". 1 2 3 4 5 6 ",
". 7 8 9 0 a b ",
". 7 8 9 0 a b ",
"c d e f g h i ",
"  j k l m n o ",
"  p q r s t u ",
"v w x y z A B ",
"C D E F G H I ",
"J K L M N O P ",
"Q R S T U V W ",
"X Y Z `  ...+.",
"@.#.$.%.&.*.=.",
"@.#.$.%.^ *.=.",
"@.-.;.>.,.'.).",
"  !.~.+.{.].^."};
