/* XPM */
static char * krell_sensitivity_xpm[] = {
"8 12 65 1",
" 	c None",
".	c #BDC5E1",
"+	c #BEC6DD",
"@	c #C1C5DF",
"#	c #C3C7E1",
"$	c #8C94BA",
"%	c #AAACCC",
"&	c #A5AECB",
"*	c #C4C8E0",
"=	c #AAADCA",
"-	c #AAB3D0",
";	c #828CAC",
">	c #7F859A",
",	c #8A8EAC",
"'	c #A6ADCA",
")	c #D0653A",
"!	c #A8AECC",
"~	c #9CA3C2",
"{	c #50566C",
"]	c #797F96",
"^	c #7E86A5",
"/	c #A9B1CD",
"(	c #A9B3D3",
"_	c #9398B6",
":	c #4B4F67",
"<	c #717A92",
"[	c #74809F",
"}	c #99A8CA",
"|	c #9DAACC",
"1	c #8C90AD",
"2	c #484C62",
"3	c #71778B",
"4	c #717995",
"5	c #95A0C0",
"6	c #F87845",
"7	c #96A0C0",
"8	c #44495D",
"9	c #6C7388",
"0	c #6A7092",
"a	c #8C96BA",
"b	c #7C82A6",
"c	c #43455A",
"d	c #676E85",
"e	c #636891",
"f	c #8288B5",
"g	c #838BB4",
"h	c #76799F",
"i	c #404257",
"j	c #65687D",
"k	c #636288",
"l	c #7D7CA8",
"m	c #7F7FA6",
"n	c #6E7296",
"o	c #3C4053",
"p	c #6A6793",
"q	c #5C5980",
"r	c #F9AEA6",
"s	c #6A6A92",
"t	c #66678E",
"u	c #5A5C7F",
"v	c #515173",
"w	c #E96C98",
"x	c #FAEAA7",
"y	c #515573",
"z	c #D14986",
"..+@@#. ",
"$%&*=-; ",
">,')!~{ ",
"]^/)(_: ",
"<[})|12 ",
"34567;8 ",
"90$6abc ",
"def6ghi ",
"jkl6mno ",
"pqprstu ",
" vwxwu  ",
" yzxzy  "};
