/* XPM */
static char * krell_vu_xpm[] = {
"60 4 51 1",
" 	c None",
".	c #87AFB0",
"+	c #92D0D1",
"@	c #91D1D1",
"#	c #92D2D1",
"$	c #93D3D2",
"%	c #93D5D2",
"&	c #93D6D2",
"*	c #96D7D6",
"=	c #9DDEDD",
"-	c #A1E2E1",
";	c #79AFAE",
">	c #313D3E",
",	c #2F3F3F",
"'	c #3C5050",
")	c #A9AEC8",
"!	c #5C898A",
"~	c #88AFB0",
"{	c #89B0B1",
"]	c #88B1B1",
"^	c #87B2B1",
"/	c #88B3B2",
"(	c #8BB8B8",
"_	c #96C6C6",
":	c #89C7C7",
"<	c #7DAFAE",
"[	c #232D2E",
"}	c #222E2F",
"|	c #2B3E3E",
"1	c #4E526B",
"2	c #547E80",
"3	c #749E9F",
"4	c #759FA0",
"5	c #76A0A1",
"6	c #76A1A2",
"7	c #75A3A3",
"8	c #7BA9A9",
"9	c #85B6B6",
"0	c #7FBBBB",
"a	c #75A5A5",
"b	c #365152",
"c	c #466A6B",
"d	c #466B6C",
"e	c #466C6C",
"f	c #456C6C",
"g	c #466D6D",
"h	c #466F6F",
"i	c #4A7575",
"j	c #548483",
"k	c #5F9292",
"l	c #609695",
"                                                 .+@#$%&*=-;",
">,'))))))))))))))))))))))))))))))))))))))))))))))!.~{]^/(_:<",
"[}|11111111111111111111111111111111111111111111112344567890a",
"                                                 bcdefghijkl"};
