/* XPM */
static char * spectrum_bar_xpm[] = {
"3 30 62 1",
" 	c None",
".	c #64A047",
"+	c #CFDBE0",
"@	c #3093BA",
"#	c #67A24E",
"$	c #CBD7DE",
"%	c #3D98BE",
"&	c #6BA455",
"*	c #C6D4DA",
"=	c #499EC0",
"-	c #6EA75D",
";	c #C1D0D7",
">	c #55A3C3",
",	c #72A864",
"'	c #BCCDD5",
")	c #61A8C7",
"!	c #75AA6B",
"~	c #B8C9D1",
"{	c #6DAEC9",
"]	c #79AD72",
"^	c #B3C6CF",
"/	c #7AB3CD",
"(	c #7CAF7A",
"_	c #AEC2CB",
":	c #86B8CF",
"<	c #80B081",
"[	c #A9BFC8",
"}	c #92BED2",
"|	c #84B288",
"1	c #A5BBC6",
"2	c #9EC3D6",
"3	c #87B590",
"4	c #A0B7C2",
"5	c #AAC8D8",
"6	c #8BB797",
"7	c #9BB4BF",
"8	c #8EB89E",
"9	c #97B0BD",
"0	c #92BAA5",
"a	c #92ADB9",
"b	c #95BDAD",
"c	c #8DA9B7",
"d	c #99BFB4",
"e	c #88A6B4",
"f	c #9CC0BB",
"g	c #84A2B0",
"h	c #A0C2C3",
"i	c #7F9FAE",
"j	c #A3C4CA",
"k	c #7A9BAA",
"l	c #A7C7D1",
"m	c #7598A7",
"n	c #7194A5",
"o	c #6C90A1",
"p	c #678D9F",
"q	c #63899C",
"r	c #5E8698",
"s	c #598296",
"t	c #547F93",
"u	c #507B8F",
"v	c #4B788D",
"w	c #467489",
".+@",
"#$%",
"&*=",
"-;>",
",')",
"!~{",
"]^/",
"(_:",
"<[}",
"|12",
"345",
"675",
"895",
"0a5",
"bc5",
"de5",
"fg5",
"hi5",
"jk5",
"lm5",
"5n5",
"5o5",
"5p5",
"5q5",
"5r5",
"5s5",
"5t5",
"5u5",
"5v5",
"5w5"};
