/* XPM */
static char * spectrum_bar_light_xpm[] = {
"3 30 4 1",
" 	c None",
".	c #FABD87",
"+	c #A64725",
"@	c #F7865A",
".+@",
".+@",
".+@",
".+@",
".+@",
".+@",
".+@",
".+@",
".+@",
".+@",
".+@",
".+@",
".+@",
".+@",
".+@",
".+@",
".+@",
".+@",
".+@",
".+@",
".+@",
".+@",
".+@",
".+@",
".+@",
".+@",
".+@",
".+@",
".+@",
".+@"};
